# xmcd CD database file
#
# Track frame offsets:
#	150
#	7894
#	38773
#	42316
#	52228
#	77191
#	86792
#	92558
#	108389
#	139115
#	159024
#	184566
#	191650
#
# Disc length: 2778 seconds
#
# Revision: 0
# Processed by: cddbd v1.5.2PL0 Copyright (c) Steve Scherf et al.
# Submitted via: CDex 1.51
#
DISCID=9e0ad80d
DTITLE=Tom Beek - Bliss
DYEAR=2012
DGENRE=Jazz
TTITLE0=Water
TTITLE1=Soledad
TTITLE2=Bliss
TTITLE3=Wat voor weer zou het zijn in Den Haag
TTITLE4=Dialogue
TTITLE5=Wiegelied
TTITLE6=Piratenliedje
TTITLE7=Nocturne no 2
TTITLE8=Body and Soul
TTITLE9=In a silent way
TTITLE10=Into the dark
TTITLE11=See me feel me hear me heal me
TTITLE12=Water reprise
EXTD=YEAR: 2012
EXTT0=
EXTT1=
EXTT2=
EXTT3=
EXTT4=
EXTT5=
EXTT6=
EXTT7=
EXTT8=
EXTT9=
EXTT10=
EXTT11=
EXTT12=
PLAYORDER=
